<svg width="1024" height="1024" viewBox="0 0 1024 1024" xmlns="http://www.w3.org/2000/svg">
  <defs>
    <linearGradient id="bg" x1="0" y1="0" x2="0" y2="1">
      <stop offset="0" stop-color="#1b1e27"/>
      <stop offset="1" stop-color="#0a0b0f"/>
    </linearGradient>
    <linearGradient id="bar" x1="0" y1="1" x2="0" y2="0">
      <stop offset="0" stop-color="#6c8cff"/>
      <stop offset="0.55" stop-color="#4fc6e0"/>
      <stop offset="1" stop-color="#00e0a4"/>
    </linearGradient>
    <filter id="glow" x="-40%" y="-40%" width="180%" height="180%">
      <feGaussianBlur stdDeviation="16" result="b"/>
      <feMerge><feMergeNode in="b"/><feMergeNode in="SourceGraphic"/></feMerge>
    </filter>
  </defs>

  <rect width="1024" height="1024" fill="url(#bg)"/>

  <!-- 5 barras simétricas, centradas vertical y horizontalmente (centro = 512,512) -->
  <g filter="url(#glow)" fill="url(#bar)">
    <rect x="230" y="392" width="84" height="240" rx="42"/>
    <rect x="350" y="282" width="84" height="460" rx="42"/>
    <rect x="470" y="192" width="84" height="640" rx="42"/>
    <rect x="590" y="282" width="84" height="460" rx="42"/>
    <rect x="710" y="392" width="84" height="240" rx="42"/>
  </g>
  <g fill="url(#bar)">
    <rect x="230" y="392" width="84" height="240" rx="42"/>
    <rect x="350" y="282" width="84" height="460" rx="42"/>
    <rect x="470" y="192" width="84" height="640" rx="42"/>
    <rect x="590" y="282" width="84" height="460" rx="42"/>
    <rect x="710" y="392" width="84" height="240" rx="42"/>
  </g>
</svg>
